<?xml version="1.0" standalone="no"?>
<!DOCTYPE svg PUBLIC "-//W3C//DTD SVG 1.1//EN" "http://www.w3.org/Graphics/SVG/1.1/DTD/svg11.dtd" >
<!--
2013-9-30: Created.
-->
<svg>
<metadata>
Created by iconfont
</metadata>
<defs>

<font id="iconfont" horiz-adv-x="1024" >
  <font-face
    font-family="iconfont"
    font-weight="500"
    font-stretch="normal"
    units-per-em="1024"
    ascent="896"
    descent="-128"
  />
    <missing-glyph />
    
    <glyph glyph-name="git" unicode="&#60119;" d="M339.980287 30.854939q0 57.120491-94.274409 57.120491-90.251839 0-90.251839-59.460896 0-57.705592 98.296979-57.705592 86.302407 0 86.302407 59.972859zM306.336976 462.220699q0 34.886651-17.114206 58.290694t-50.830655 23.404043q-70.870366 0-70.870366-82.864938 0-77.160203 70.870366-77.160203 68.017999 0 68.017999 78.257267zM459.999143 647.405185l0-115.411185q-20.551675-6.874938-45.12592-12.579673 9.142204-24.574245 9.142204-47.978287 0-72.552532-41.688451-123.675737t-112.558817-64.287979q-22.818942-4.534533-34.008999-15.432041t-11.11692-33.131348q0-17.699307 12.872223-29.401328t33.131348-18.284408 44.833369-12.579673 49.148489-14.554389 44.833369-21.429326 33.131348-36.568817 12.872223-56.315977q0-173.701878-207.418327-173.701878-39.421184 0-74.307835 7.167488t-66.262696 23.404043-50.026141 46.881223-18.576959 72.845082q0 94.274409 104.001714 128.575959l0 2.267267q-38.250982 23.404043-38.250982 71.967431 0 62.313263 35.983715 78.257267l0 2.267267q-41.176487 13.676737-68.310549 62.020713t-27.134062 94.56696q0 79.427469 54.268124 132.305978t134.280694 52.878509q54.853225 0 101.734448-26.841511 56.023427 0 124.553389 26.841511zM641.673023 143.998857l-126.820656 0q2.267267 25.744447 2.267267 76.575102l0 347.988858q0 53.683023-2.267267 73.137633l126.820656 0q-2.267267-18.869509-2.267267-70.870366l0-350.256125q0-50.830655 2.267267-76.575102zM985.127348 270.819513l0-111.973716q-40.591386-22.306978-99.394043-22.306978-35.398614 0-61.143061 11.409471t-40.006285 28.596815-22.599529 44.540819-10.604957 52.585958-2.267267 58.875795l0 200.54339 1.170202 0 0 2.267267q-4.02257 0-10.82437 0.585101t-10.312406 0.585101q-11.994572 0-33.716449-3.437469l0 108.536247 54.853225 0 0 43.443754q0 30.864081-3.437469 50.830655l129.673023 0q-3.437469-23.404043-3.437469-94.274409l97.711878 0 0-108.536247q-8.557103 0-24.866795 1.170202t-24.281694 1.170202l-48.563388 0 0-208.588529q0-74.819799 49.73359-74.819799 34.886651 0 62.313263 18.869509zM656.007999 811.96486q0-33.131348-22.306978-57.998143t-54.853225-24.866795q-33.131348 0-56.023427 24.866795t-22.818942 57.998143q0 33.716449 22.599529 58.875795t56.315977 25.159346q33.131348 0 55.145775-25.451896t22.014428-58.583244z"  horiz-adv-x="1024" />

    
    <glyph glyph-name="shenfenzheng" unicode="&#58917;" d="M768 167.384615v7.876923 11.815385c-11.815385 110.276923-122.092308 196.923077-256 196.923077s-244.184615-86.646154-256-192.984615v-23.63077c0-43.323077 35.446154-78.769231 78.769231-78.76923h354.461538c43.323077 0 78.769231 35.446154 78.769231 78.76923zM512-128C228.430769-128 0 100.430769 0 384S228.430769 896 512 896s512-228.430769 512-512-228.430769-512-512-512z m0 555.323077c94.523077 0 169.353846 74.830769 169.353846 169.353846S606.523077 769.969231 512 769.969231s-169.353846-78.769231-169.353846-173.292308 74.830769-169.353846 169.353846-169.353846z"  horiz-adv-x="1024" />

    
    <glyph glyph-name="wodedamaijihuo" unicode="&#58966;" d="M512 337.454545c-141.963636 0-256 125.44-256 279.272728S370.036364 896 512 896s256-125.44 256-279.272727-114.036364-279.272727-256-279.272728zM93.090909 69.818182A197.818182 197.818182 0 0 0 290.909091 267.636364h442.181818a197.818182 197.818182 0 1 0 0-395.636364h-442.181818A198.050909 198.050909 0 0 0 93.090909 69.818182z"  horiz-adv-x="1024" />

    
    <glyph glyph-name="damailogo" unicode="&#58968;" d="M270.719027 594.762996v79.519085a103.140931 103.140931 0 0 1-206.281861 0L63.501647 383.101902a392.917831 392.917831 0 0 0 207.21738 211.661094zM938.913221 309.663688a114.601034 114.601034 0 0 1-160.441448 23.387967l-2.104917-1.637158 1.871037 438.290486a126.061138 126.061138 0 1 1-252.122275 0v-185.232692a363.448994 363.448994 0 1 1 94.955143-654.863053 113.431636 113.431636 0 0 1 23.387966 13.565021l272.703685 206.047981a114.601034 114.601034 0 0 1 21.750809 160.441448z m-514.535256-239.960532a166.288439 166.288439 0 1 0 166.990078 165.5868 166.288439 166.288439 0 0 0-166.522319-165.5868z"  horiz-adv-x="1024" />

    
    <glyph glyph-name="yingyongguanli" unicode="&#60263;" d="M384 800H192a96 96 0 0 1-96-96v-192a96 96 0 0 1 96-96h192a96 96 0 0 1 96 96V704a96 96 0 0 1-96 96z m32-288a32 32 0 0 0-32-32H192a32 32 0 0 0-32 32V704a32 32 0 0 0 32 32h192a32 32 0 0 0 32-32v-192zM384 352H192a96 96 0 0 1-96-96v-192a96 96 0 0 1 96-96h192a96 96 0 0 1 96 96v192a96 96 0 0 1-96 96z m32-288a32 32 0 0 0-32-32H192a32 32 0 0 0-32 32v192a32 32 0 0 0 32 32h192a32 32 0 0 0 32-32v-192zM832 352h-192a96 96 0 0 1-96-96v-192a96 96 0 0 1 96-96h192a96 96 0 0 1 96 96v192a96 96 0 0 1-96 96z m32-288a32 32 0 0 0-32-32h-192a32 32 0 0 0-32 32v192a32 32 0 0 0 32 32h192a32 32 0 0 0 32-32v-192zM736 608m-192 0a192 192 0 1 1 384 0 192 192 0 1 1-384 0Z"  horiz-adv-x="1024" />

    
    <glyph glyph-name="github" unicode="&#58999;" d="M512 883.328c-282.88 0-512-229.248-512-512 0-226.261333 146.688-418.133333 350.08-485.76 25.6-4.821333 34.986667 11.008 34.986667 24.618667 0 12.16-0.426667 44.373333-0.64 87.04-142.421333-30.890667-172.458667 68.693333-172.458667 68.693333C188.672 125.013333 155.008 140.8 155.008 140.8c-46.378667 31.744 3.584 31.104 3.584 31.104 51.413333-3.584 78.421333-52.736 78.421333-52.736 45.653333-78.293333 119.850667-55.68 149.12-42.581333 4.608 33.109333 17.792 55.68 32.426667 68.48-113.706667 12.8-233.216 56.832-233.216 253.013333 0 55.893333 19.84 101.546667 52.693333 137.386667-5.76 12.928-23.04 64.981333 4.48 135.509333 0 0 42.88 13.738667 140.8-52.48 40.96 11.392 84.48 17.024 128 17.28 43.52-0.256 87.04-5.888 128-17.28 97.28 66.218667 140.16 52.48 140.16 52.48 27.52-70.528 10.24-122.581333 5.12-135.509333 32.64-35.84 52.48-81.493333 52.48-137.386667 0-196.693333-119.68-240-233.6-252.586667 17.92-15.36 34.56-46.762667 34.56-94.72 0-68.522667-0.64-123.562667-0.64-140.202666 0-13.44 8.96-29.44 35.2-24.32C877.44-46.592 1024 145.408 1024 371.328c0 282.752-229.248 512-512 512"  horiz-adv-x="1024" />

    
    <glyph glyph-name="icon_rukou" unicode="&#60296;" d="M192 551.36H128V704a96 96 0 0 0 96 96h608a96 96 0 0 0 96-96v-640a96 96 0 0 0-96-96H224a96 96 0 0 0-96 96v126.272h64V64a32 32 0 0 1 32-32h608a32 32 0 0 1 32 32V704a32 32 0 0 1-32 32H224a32 32 0 0 1-32-32v-152.64zM538.688 485.152a32 32 0 1 0 39.808 50.112l148.32-117.856c23.744-18.848 10.4-57.056-19.904-57.056H72.832a32 32 0 1 0 0 64h542.368l-76.48 60.8z"  horiz-adv-x="1024" />

    
    <glyph glyph-name="icon_zhanghao" unicode="&#60298;" d="M620.256 89.824a32 32 0 0 0-28.256 31.776v80.736a32 32 0 0 0 13.216 25.92c52.864 38.272 99.168 99.68 124.736 169.152a32 32 0 0 0 19.584 19.2c9.76 3.36 21.536 24.224 32.416 70.72 5.92 25.152-1.024 40.96-16.576 50.4a32 32 0 0 0-15.264 24.48C736.448 714.688 650.144 800 514.24 800c-138.24 0-227.936-88.064-240.672-242.432a32 32 0 0 0-15.04-24.544c-16.416-10.24-22.272-23.36-16.224-44.032 11.392-38.88 23.84-60.352 36.8-68.48a32 32 0 0 0 13.12-16.384c25.088-70.496 72.224-133.536 126.72-173.504a32 32 0 0 0 13.056-25.792V121.6a32 32 0 0 0-28.256-31.776c-125.12-14.72-212.608-54.4-225.952-88.672 2.304-1.056 5.12-2.176 8.384-3.296 17.184-6.016 43.52-11.52 77.12-16.096 65.504-8.896 155.168-13.76 248.704-13.76s183.2 4.864 248.704 13.76c33.6 4.576 59.936 10.08 77.12 16.096 3.296 1.12 6.08 2.24 8.384 3.296-13.344 34.272-100.832 73.92-225.92 88.64z m35.744 59.776c151.36-22.656 256-79.168 256-157.376C912-74.784 755.84-96 512-96s-400 21.216-400 88.224c0 78.208 104.64 134.72 256 157.376V189.12c-56.64 45.536-104.576 110.944-132.576 184.128-23.936 19.392-40.928 51.296-54.528 97.792-12.8 43.648 0.064 81.344 30.336 106.592C231.456 755.52 346.336 864 514.24 864c165.6 0 276.992-105.728 298.08-281.44 29.44-24.864 42.72-63.904 31.968-109.856-13.312-56.768-30.848-92.512-58.976-109.632-28.448-70.624-74.976-133.184-129.312-176.576v-36.896z"  horiz-adv-x="1024" />

    
    <glyph glyph-name="icon_bangzhuwendang" unicode="&#60306;" d="M896 832H234.656C157.728 832 96 767.2 96 688c0-5.472 0.992-10.688 1.536-16H96v-576c0-88.032 68.544-160 153.92-160H896V608H234.656C193.792 608 160 643.488 160 688S193.792 768 234.656 768H896V832z m-432-288H640v-172.192l-68.192 53.696a31.968 31.968 0 0 1-39.584 0L464 371.808V544z m-229.344 0H400v-238.112a32 32 0 0 1 51.808-25.152l100.192 78.912 100.192-78.912A32 32 0 0 1 704 305.888V544h128v-544H249.92C200.608 0 160 42.656 160 96V566.976c21.536-14.368 47.04-22.976 74.656-22.976zM255.776 720H832v-64H255.776z"  horiz-adv-x="1024" />

    
    <glyph glyph-name="shebeiguanli" unicode="&#60343;" d="M800 160H448a32 32 0 0 1 0-64h352a32 32 0 0 1 0 64zM800 416H448a32 32 0 0 1 0-64h352a32 32 0 0 1 0 64zM800 672H448a32 32 0 0 1 0-64h352a32 32 0 0 1 0 64zM304 160h-64a32 32 0 0 1 0-64h64a32 32 0 0 1 0 64zM304 416h-64a32 32 0 0 1 0-64h64a32 32 0 0 1 0 64zM304 672h-64a32 32 0 0 1 0-64h64a32 32 0 0 1 0 64zM864 800H160a96 96 0 0 1-96-96v-640a96 96 0 0 1 96-96h704a96 96 0 0 1 96 96V704a96 96 0 0 1-96 96z m32-736a32 32 0 0 0-32-32H160a32 32 0 0 0-32 32v160h672a32 32 0 0 1 0 64H128v192h672a32 32 0 0 1 0 64H128V704a32 32 0 0 0 32 32h704a32 32 0 0 0 32-32v-640z"  horiz-adv-x="1024" />

    
    <glyph glyph-name="wechat" unicode="&#58882;" d="M498.816 550.944c26.336 0 43.936 17.632 43.936 43.904 0 26.56-17.568 43.744-43.936 43.744s-52.832-17.184-52.832-43.744c0.032-26.272 26.496-43.904 52.832-43.904z m-245.728 87.648c-26.336 0-52.96-17.184-52.96-43.744 0-26.272 26.624-43.904 52.96-43.904 26.24 0 43.808 17.632 43.808 43.904-0.032 26.56-17.568 43.744-43.808 43.744zM1024 269.888c0 138.88-128.832 257.216-286.976 269.536 0.224 1.728 0.32 3.52-0.064 5.312-31.712 147.84-190.688 259.296-369.824 259.296C164.704 804.032 0 662.88 0 489.376c0-93.088 47.52-176.96 137.568-243.104l-31.392-94.368c-2.016-6.144-0.192-12.896 4.704-17.152a16.109 16.109 0 0 1 10.496-3.904 16.26 16.26 0 0 1 7.168 1.696L246.4 191.52l14.528-2.944c36.288-7.456 67.616-13.92 106.208-13.92a405.7 405.7 0 0 1 34.176 1.472c4.576 0.384 8.448 2.688 11.072 6.016C454.88 75.808 572-0.96 709.824-0.96c35.296 0 71.04 8.512 103.104 16.544l90.848-49.664a16.06 16.06 0 0 1 7.68-1.984 15.99 15.99 0 0 1 10.048 3.552c5.056 4.096 7.136 10.848 5.248 17.024l-23.2 77.152C981.344 123.136 1024 196.672 1024 269.888z m-625.408-61.856c-10.4-0.896-20.96-1.344-31.424-1.344-35.328 0-65.216 6.112-99.776 13.248L247.296 224a15.457 15.457 0 0 1-10.272-1.376l-88.288-44.192 22.944 68.928a16.014 16.014 0 0 1-6.016 18.176C76.96 327.36 32 402.688 32 489.376c0 155.84 150.336 282.656 335.136 282.656 163.36 0 308-99.392 337.856-231.584-171.296-2.24-309.888-122.656-309.888-270.56 0-21.504 3.264-42.336 8.768-62.432-1.664 0.416-3.424 0.736-5.28 0.576z m476.864-127.584a16.02 16.02 0 0 1-5.696-17.376l15.136-50.336-62.112 33.984a15.876 15.876 0 0 1-7.68 1.984c-1.312 0-2.624-0.16-3.904-0.512-33.312-8.416-67.776-17.088-101.344-17.088-155.904 0-282.72 107.136-282.72 238.816s126.816 238.784 282.72 238.784C862.784 508.704 992 399.36 992 269.92c0-65.664-41.376-132.96-116.544-189.472zM612.992 384.032c-17.568 0-35.136-17.696-35.136-35.232 0-17.664 17.568-35.104 35.136-35.104 26.4 0 43.84 17.44 43.84 35.104 0 17.568-17.44 35.232-43.84 35.232z m193.024 0c-17.312 0-34.88-17.696-34.88-35.232 0-17.664 17.568-35.104 34.88-35.104 26.304 0 44.064 17.44 44.064 35.104 0 17.568-17.728 35.232-44.064 35.232z"  horiz-adv-x="1025" />

    
    <glyph glyph-name="Computer-" unicode="&#58933;" d="M803.1 376.2H186V706.5c0 22.1 17.9 40 40 40h537.1c22.1 0 40-17.9 40-40v-330.3z m-577.1 40h537.1V706.5H226v-290.3zM763.1 286.9H226c-22.1 0-40 17.9-40 40v89.3h617.1v-89.3c0-22-18-40-40-40zM226 376.2v-49.3h537.1v49.3H226zM461.5 306.9h94.1v-158.2h-94.1zM779.9 62.4h-537c-11 0-20 9-20 20v46.3c0 11 9 20 20 20H780c11 0 20-9 20-20v-46.3c-0.1-11-9-20-20.1-20zM226 418h537.1v-41.9H226z"  horiz-adv-x="1024" />

    
    <glyph glyph-name="xinyongqia-" unicode="&#58969;" d="M762.9 172.1H246.6c-33.1 0-60 26.9-60 60V524.8c0 33.1 26.9 60 60 60h516.3c33.1 0 60-26.9 60-60v-292.7c0-33.1-26.9-60-60-60zM246.6 544.8c-11 0-20-9-20-20v-292.7c0-11 9-20 20-20h516.3c11 0 20 9 20 20V524.8c0 11-9 20-20 20H246.6zM803 463.4H206.6v63.8c0 22.1 17.9 40 40 40H763c22.1 0 40-17.9 40-40v-63.8zM823 443.4H186.6v83.8c0 33.1 26.9 60 60 60H763c33.1 0 60-26.9 60-60v-83.8z m-596.4 40H783v43.8c0 11-9 20-20 20H246.6c-11 0-20-9-20-20v-43.8zM539.8 343.4H256c-11 0-20 9-20 20s9 20 20 20h283.8c11 0 20-9 20-20s-9-20-20-20zM715.6 302h-97c-11 0-20 9-20 20s9 20 20 20h97c11 0 20-9 20-20s-8.9-20-20-20zM618.6 258h95M713.6 238h-95c-11 0-20 9-20 20s9 20 20 20h95c11 0 20-9 20-20s-8.9-20-20-20z"  horiz-adv-x="1024" />

    
    <glyph glyph-name="yonghu-" unicode="&#58976;" d="M487.6 564.5m-137.5 0a137.5 137.5 0 1 1 275 0 137.5 137.5 0 1 1-275 0ZM487.6 407c-86.8 0-157.5 70.6-157.5 157.5 0 86.8 70.6 157.5 157.5 157.5S645 651.3 645 564.5 574.4 407 487.6 407z m0 274.9c-64.8 0-117.5-52.7-117.5-117.5S422.8 447 487.6 447s117.5 52.7 117.5 117.5-52.8 117.4-117.5 117.4zM739.3 175.3H241.6c0 137.4 111.4 248.8 248.8 248.8s248.9-111.4 248.9-248.8zM759.3 155.3H221.6v20c0 71.8 28 139.3 78.7 190.1 50.8 50.8 118.3 78.7 190.1 78.7s139.3-28 190.1-78.7c50.8-50.8 78.7-118.3 78.7-190.1v-20z m-496.9 40h456c-10.2 116.9-108.5 208.8-228 208.8-119.4 0-217.8-92-228-208.8z"  horiz-adv-x="1024" />

    
    <glyph glyph-name="daibanshixiang" unicode="&#60494;" d="M336 352C256.608 352 192 287.392 192 208S256.608 64 336 64s144 64.608 144 144-64.608 144-144 144z m0-224C291.904 128 256 163.872 256 208S291.904 288 336 288s80-35.872 80-80-35.904-80-80-80zM800 640h-211.424a32 32 0 1 1 0-64H800a32 32 0 1 1 0 64zM800 320h-211.424a32 32 0 1 1 0-64H800a32 32 0 1 1 0 64zM800 512h-211.424a32 32 0 1 1 0-64H800a32 32 0 1 1 0 64zM800 184h-211.424a32 32 0 1 1 0-64H800a32 32 0 1 1 0 64zM440 660.192l-120.992-148.608-71.04 80.352a32 32 0 0 1-47.936-42.4l71.008-80.352a63.648 63.648 0 0 1 48.032-21.632 63.36 63.36 0 0 1 49.536 23.584L489.6 619.808a32 32 0 0 1-49.6 40.384zM896 832H128c-35.296 0-64-28.704-64-64v-768c0-35.296 28.704-64 64-64h768c35.296 0 64 28.704 64 64V768c0 35.296-28.704 64-64 64zM128 0V768h768l0.064-768H128z"  horiz-adv-x="1024" />

    
    <glyph glyph-name="icon_shezhi_m" unicode="&#58905;" d="M896 469.333333h-53.76a353.28 353.28 0 0 1-36.266667 87.893334l37.973334 37.973333a42.666667 42.666667 0 0 1 0 60.16l-60.586667 60.586667a42.666667 42.666667 0 0 1-29.866667 12.373333 42.666667 42.666667 0 0 1-30.293333-12.373333l-37.973333-37.973334A353.28 353.28 0 0 1 597.333333 714.24V768a42.666667 42.666667 0 0 1-42.666666 42.666667h-85.333334a42.666667 42.666667 0 0 1-42.666666-42.666667v-53.76a353.28 353.28 0 0 1-87.893334-36.266667l-37.973333 37.973334a42.666667 42.666667 0 0 1-30.293333 12.373333 42.666667 42.666667 0 0 1-29.866667-12.373333L180.053333 655.36a42.666667 42.666667 0 0 1 0-60.16l37.973334-37.973333A353.28 353.28 0 0 1 181.76 469.333333H128a42.666667 42.666667 0 0 1-42.666667-42.666666v-85.333334a42.666667 42.666667 0 0 1 42.666667-42.666666h53.76a353.28 353.28 0 0 1 36.266667-87.893334l-37.973334-40.106666a42.666667 42.666667 0 0 1 0-60.16l60.586667-60.586667a42.666667 42.666667 0 0 1 29.866667-12.373333 42.666667 42.666667 0 0 1 30.293333 12.373333l37.973333 37.973333a353.28 353.28 0 0 1 87.893334-36.266666V0a42.666667 42.666667 0 0 1 42.666666-42.666667h85.333334a42.666667 42.666667 0 0 1 42.666666 42.666667v53.76a353.28 353.28 0 0 1 87.893334 36.266667l37.973333-37.973334a42.666667 42.666667 0 0 1 30.293333-12.373333 42.666667 42.666667 0 0 1 29.866667 12.373333l60.586667 60.586667a42.666667 42.666667 0 0 1 0 60.16l-37.973334 37.973333a353.28 353.28 0 0 1 36.266667 87.893334H896a42.666667 42.666667 0 0 1 42.666667 42.666666v85.333334a42.666667 42.666667 0 0 1-42.666667 42.666666z m-243.2-135.253333a21.333333 21.333333 0 1 0-40.106667 14.506667 108.373333 108.373333 0 0 1 5.973334 35.413333 106.666667 106.666667 0 1 1-106.666667-106.666667 108.373333 108.373333 0 0 1 35.413333 5.973334 20.906667 20.906667 0 0 0 27.306667-12.8 21.333333 21.333333 0 0 0-12.8-27.306667 153.6 153.6 0 0 0-49.92-8.533333 149.333333 149.333333 0 1 0 149.333333 149.333333 153.6 153.6 0 0 0-8.533333-49.92z"  horiz-adv-x="1024" />

    
    <glyph glyph-name="icon_shizhong_m" unicode="&#58910;" d="M512 384m-76.8 0a76.8 76.8 0 1 1 153.6 0 76.8 76.8 0 1 1-153.6 0ZM512 810.666667a426.666667 426.666667 0 0 1 0-853.333334 388.693333 388.693333 0 0 1 44.8 2.56h4.693333c13.226667 0 26.453333 3.84 39.253334 6.4h4.266666a282.026667 282.026667 0 0 1 38.4 10.24l5.973334 2.133334c11.52 3.84 23.466667 8.533333 34.986666 13.226666l8.106667 4.266667c10.24 4.693333 20.053333 9.813333 29.866667 15.36l11.093333 6.4c8.533333 5.12 16.64 10.666667 24.746667 16.213333l12.373333 9.386667c7.253333 5.546667 14.506667 11.093333 21.333333 17.066667l12.8 11.52 17.92 18.346666 7.253334 7.253334a5.546667 5.546667 0 0 1 0 2.133333 426.666667 426.666667 0 0 1 59.306666 85.333333c0 3.413333 2.56 6.4 4.266667 9.386667 4.693333 10.24 9.386667 20.48 13.226667 30.72s3.84 9.813333 5.546666 14.506667 6.826667 20.906667 9.813334 32 2.133333 8.96 3.413333 13.653333c2.56 11.946667 4.693333 23.466667 6.4 35.413333v11.946667A450.133333 450.133333 0 0 1 938.666667 384 426.666667 426.666667 0 0 1 512 810.666667z m270.933333-448h-136.533333a13.653333 13.653333 0 0 0-8.106667 2.986666 128 128 0 1 0-146.346666 144.213334 13.226667 13.226667 0 0 0 0 5.546666v213.333334a21.333333 21.333333 0 0 0 42.666666 0v-213.333334a13.226667 13.226667 0 0 0 0-5.546666A128 128 0 0 0 640 402.346667a14.506667 14.506667 0 0 0 8.106667 2.986666h136.533333a21.76 21.76 0 0 0 0-42.666666z"  horiz-adv-x="1024" />

    
    <glyph glyph-name="icon_wode_mian" unicode="&#58895;" d="M615.68 454.826667a213.333333 213.333333 0 1 1-167.68-17.493334l13.226667-3.84 14.933333-3.413333A200.106667 200.106667 0 0 1 512 426.666667a21.333333 21.333333 0 0 0 0-42.666667 256 256 0 0 0-135.68 39.253333 42.666667 42.666667 0 0 1-40.106667 3.413334A384 384 0 0 1 128 85.333333c0-106.24 192-159.146667 384-159.146666s384 52.906667 384 159.146666a384 384 0 0 1-280.32 369.493334z"  horiz-adv-x="1024" />

    
    <glyph glyph-name="icon_wenben_mian" unicode="&#58896;" d="M862.293333 251.733333L725.333333 26.026667a18.773333 18.773333 0 0 0-6.826666-7.253334l-66.56-42.666666a5.546667 5.546667 0 0 0-8.533334 5.12l5.973334 78.933333a17.066667 17.066667 0 0 0 2.986666 8.96l183.466667 306.773333a21.76 21.76 0 0 0 29.44 7.68l36.693333-22.613333a20.48 20.48 0 0 0 7.253334-29.013333l-10.666667-17.92zM602.88 52.48l195.413333 352.426667a42.666667 42.666667 0 0 0 37.546667 21.76H853.333333a42.666667 42.666667 0 0 1 42.666667 42.666666V746.666667A64 64 0 0 1 832 810.666667h-597.333333A64 64 0 0 1 170.666667 746.666667v-725.333334A64 64 0 0 1 234.666667-42.666667H554.666667a42.666667 42.666667 0 0 1 42.666666 42.666667v31.573333a42.666667 42.666667 0 0 0 5.546667 20.906667zM320 682.666667h426.666667a21.333333 21.333333 0 0 0 0-42.666667h-426.666667a21.333333 21.333333 0 0 0 0 42.666667z m0-170.666667h426.666667a21.333333 21.333333 0 0 0 0-42.666667h-426.666667a21.333333 21.333333 0 0 0 0 42.666667z m0-170.666667h298.666667a21.333333 21.333333 0 1 0 0-42.666666h-298.666667a21.333333 21.333333 0 0 0 0 42.666666z m213.333333-213.333333h-213.333333a21.333333 21.333333 0 0 0 0 42.666667h213.333333a21.333333 21.333333 0 0 0 0-42.666667z"  horiz-adv-x="1024" />

    
    <glyph glyph-name="edit_code" unicode="&#58887;" d="M660.543 14.157c0-20.2-16.4-36.6-36.6-36.6h-39c-20.2 0-36.6 16.4-36.6 36.6v296.8c0 20.2 16.4 36.6 36.6 36.6h127.4c20.2 0 36.6-16.4 36.6-36.6v-107.9h75.9v107.9c0 20.2 16.4 36.6 36.6 36.6h18.8c20.2 0 36.6-16.4 36.6-36.6v-205c0-20.2-16.4-36.6-36.6-36.6h-219.7v-55.2zM622.643 713.157v-219.9h219.4v219.9h-219.4z m-36.5 73.1h292.5c20.2 0 36.6-16.4 36.6-36.6v-293c0-20.2-16.4-36.6-36.6-36.6h-292.5c-20.2 0-36.6 16.4-36.6 36.6v293c0 20.3 16.4 36.6 36.6 36.6zM182.843 711.257v-217.2h220.2v217.2h-220.2z m-36.6 73.2h293.4c20.2 0 36.6-16.4 36.6-36.6v-290.3c0-20.2-16.4-36.6-36.6-36.6h-293.4c-20.2 0-36.6 16.4-36.6 36.6v290.3c0.1 20.2 16.4 36.6 36.6 36.6zM184.843 274.657v-219.8h217.5v219.8h-217.5z m-36.6 73.1h290.7c20.2 0 36.6-16.4 36.6-36.6v-293c0-20.2-16.4-36.6-36.6-36.6h-290.7c-20.2 0-36.6 16.4-36.6 36.6v293c0.1 20.2 16.4 36.6 36.6 36.6zM292.6 550.2c29 0 52.4 23.5 52.4 52.4 0 29-23.5 52.4-52.4 52.4-29 0-52.4-23.5-52.4-52.4-0.1-28.9 23.4-52.4 52.4-52.4zM293.4 110.5c29.2 0 52.9 23.7 52.9 52.9s-23.7 52.9-52.9 52.9-52.9-23.7-52.9-52.9 23.7-52.9 52.9-52.9zM732.1 550.3c29.2 0 52.9 23.7 52.9 52.9s-23.7 52.9-52.9 52.9-52.9-23.7-52.9-52.9 23.7-52.9 52.9-52.9z"  horiz-adv-x="1024" />

    
    <glyph glyph-name="link" unicode="&#59131;" d="M810.666667 618.666667h-64c-117.333333 0-213.333333-96-213.333334-213.333334s96-213.333333 213.333334-213.333333h64c117.333333 0 213.333333 96 213.333333 213.333333s-96 213.333333-213.333333 213.333334z m0-341.333334h-64c-70.4 0-128 57.6-128 128s57.6 128 128 128h64c70.4 0 128-57.6 128-128s-57.6-128-128-128zM277.333333 618.666667h-64C96 618.666667 0 522.666667 0 405.333333s96-213.333333 213.333333-213.333333h64c117.333333 0 213.333333 96 213.333334 213.333333s-96 213.333333-213.333334 213.333334z m0-341.333334h-64c-70.4 0-128 57.6-128 128s57.6 128 128 128h64c70.4 0 128-57.6 128-128s-57.6-128-128-128zM704 448H320c-23.466667 0-42.666667-19.2-42.666667-42.666667s19.2-42.666667 42.666667-42.666666h384c23.466667 0 42.666667 19.2 42.666667 42.666666s-19.2 42.666667-42.666667 42.666667z"  horiz-adv-x="1024" />

    
    <glyph glyph-name="mind_map" unicode="&#59138;" d="M840.533333 405.333333l-17.066666 85.333334L554.666667 435.2V725.333333h-85.333334v-262.4l-296.533333 192-46.933333-72.533333 324.266666-209.066667L200.533333 46.933333l68.266667-51.2 241.066667 315.733334 179.2-270.933334 72.533333 46.933334-179.2 266.666666zM512 384m-149.333333 0a149.333333 149.333333 0 1 1 298.666666 0 149.333333 149.333333 0 1 1-298.666666 0ZM512 725.333333m-106.666667 0a106.666667 106.666667 0 1 1 213.333334 0 106.666667 106.666667 0 1 1-213.333334 0ZM832 448m-106.666667 0a106.666667 106.666667 0 1 1 213.333334 0 106.666667 106.666667 0 1 1-213.333334 0ZM149.333333 618.666667m-106.666666 0a106.666667 106.666667 0 1 1 213.333333 0 106.666667 106.666667 0 1 1-213.333333 0ZM234.666667 21.333333m-106.666667 0a106.666667 106.666667 0 1 1 213.333333 0 106.666667 106.666667 0 1 1-213.333333 0ZM725.333333 64m-106.666666 0a106.666667 106.666667 0 1 1 213.333333 0 106.666667 106.666667 0 1 1-213.333333 0Z"  horiz-adv-x="1024" />

    
    <glyph glyph-name="org_unit" unicode="&#59149;" d="M213.333333 682.666667v-597.333334h597.333334V682.666667H213.333333z m512-512H298.666667V597.333333h426.666666v-426.666666zM128 768h256v-256H128zM640 768h256v-256H640zM128 256h256v-256H128zM640 256h256v-256H640z"  horiz-adv-x="1024" />

    
    <glyph glyph-name="serial_tasks" unicode="&#59177;" d="M704 704H234.666667v-85.333333h469.333333c23.466667 0 42.666667-19.2 42.666667-42.666667v-426.666667H490.666667v-85.333333h341.333333V576c0 70.4-57.6 128-128 128zM128 768h213.333333v-213.333333H128zM682.666667 533.333333h213.333333v-213.333333H682.666667zM341.333333 213.333333h213.333334v-213.333333H341.333333zM554.666667 661.333333m-106.666667 0a106.666667 106.666667 0 1 1 213.333333 0 106.666667 106.666667 0 1 1-213.333333 0ZM789.333333 106.666667m-106.666666 0a106.666667 106.666667 0 1 1 213.333333 0 106.666667 106.666667 0 1 1-213.333333 0Z"  horiz-adv-x="1024" />

    
    <glyph glyph-name="voicemail" unicode="&#59198;" d="M1024 384c0 130.133333-104.533333 234.666667-234.666667 234.666667s-234.666667-104.533333-234.666666-234.666667c0-57.6 19.2-108.8 53.333333-149.333333h-192c34.133333 40.533333 53.333333 91.733333 53.333333 149.333333 0 130.133333-104.533333 234.666667-234.666666 234.666667S0 514.133333 0 384s104.533333-234.666667 234.666667-234.666667h576v2.133334c119.466667 10.666667 213.333333 110.933333 213.333333 232.533333zM85.333333 384c0 83.2 66.133333 149.333333 149.333334 149.333333s149.333333-66.133333 149.333333-149.333333-66.133333-149.333333-149.333333-149.333333-149.333333 66.133333-149.333334 149.333333z m704-149.333333c-83.2 0-149.333333 66.133333-149.333333 149.333333s66.133333 149.333333 149.333333 149.333333 149.333333-66.133333 149.333334-149.333333-66.133333-149.333333-149.333334-149.333333z"  horiz-adv-x="1024" />

    
    <glyph glyph-name="workflow" unicode="&#59199;" d="M149.333333 234.666667h213.333334v-213.333334H149.333333zM753.066667 484.266667l-119.466667 119.466666c-8.533333 8.533333-8.533333 21.333333 0 29.866667l119.466667 119.466667c8.533333 8.533333 21.333333 8.533333 29.866666 0l119.466667-119.466667c8.533333-8.533333 8.533333-21.333333 0-29.866667l-119.466667-119.466666c-8.533333-8.533333-21.333333-8.533333-29.866666 0zM256 618.666667m-128 0a128 128 0 1 1 256 0 128 128 0 1 1-256 0ZM768 128m-128 0a128 128 0 1 1 256 0 128 128 0 1 1-256 0ZM234.666667 384h42.666666v-106.666667h-42.666666zM256 448l-64-85.333333h128zM426.666667 640h106.666666v-42.666667h-106.666666zM597.333333 618.666667l-85.333333 64v-128zM746.666667 448h42.666666v-106.666667h-42.666666zM768 277.333333l64 85.333334h-128z"  horiz-adv-x="1024" />

    


  </font>
</defs>
</svg>
